<?xml version="1.0" standalone="no"?><!DOCTYPE svg PUBLIC "-//W3C//DTD SVG 1.1//EN" "http://www.w3.org/Graphics/SVG/1.1/DTD/svg11.dtd"><svg t="1690421768104" class="icon" viewBox="0 0 1024 1024" version="1.1" xmlns="http://www.w3.org/2000/svg" p-id="4707" xmlns:xlink="http://www.w3.org/1999/xlink" width="200" height="200"><path d="M507.904 333.312c-63.488 0-115.2-51.712-115.2-115.2s51.712-115.2 115.2-115.2 115.2 51.712 115.2 115.2-51.712 115.2-115.2 115.2z m0-182.272c-36.864 0-67.072 30.208-67.072 67.072S471.04 285.184 507.904 285.184c36.864 0 67.072-30.208 67.072-67.072s-30.208-67.072-67.072-67.072zM349.696 919.04c-2.048 0-4.096-0.512-6.656-1.024-12.8-3.584-20.48-16.896-16.896-29.696l110.08-397.312c0.512-3.584 1.024-6.144 0.512-8.192-2.56-31.744-28.672-56.832-58.88-56.832-32.768 0-58.88 28.16-58.88 62.976v90.624c0 13.312-10.752 24.064-24.064 24.064s-24.064-10.752-24.064-24.064V488.96c0-60.928 48.128-111.104 107.008-111.104 55.808 0 101.888 43.52 106.496 100.864 0.512 6.656 0 13.824-1.536 22.016l-0.512 2.048L372.736 901.12c-3.072 10.752-12.288 17.92-23.04 17.92zM681.472 919.04c-10.752 0-19.968-7.168-23.04-17.408L547.328 501.76c-1.536-8.192-2.048-15.36-1.536-22.016 5.12-57.344 50.688-100.864 106.496-100.864 58.88 0 107.008 49.664 107.008 111.104v90.624c0 13.312-10.752 24.064-24.064 24.064s-24.064-10.752-24.064-24.064V488.96c0-34.816-26.624-62.976-58.88-62.976-30.208 0-55.808 25.088-58.88 56.832 0 2.048 0 4.608 0.512 8.192l110.08 397.312c3.584 12.8-4.096 26.112-16.896 29.696-1.024 0.512-3.584 1.024-5.632 1.024z" fill="#000000" p-id="4708"></path></svg>